<svg xmlns="http://www.w3.org/2000/svg" width="230" height="104" viewBox="0 0 230 104">
    <path data-name="사각형 6161" style="fill:none" d="M0 0h230v104H0z"/>
    <g data-name="그룹 16293">
        <path data-name="패스 7600" d="M28.1 72.6h4.3V32h-4.3v40.6zm-15.9-20a16.382 16.382 0 0 0 2.7 3.4c1.6 1.8 3.5 3.7 6.4 6.4l2.8-2.9a60.108 60.108 0 0 1-6.2-6.1c-3.1-3.4-3.6-4.7-3.6-8.2v-5.8h8.4v-3.8H1.4v3.8H10v5.8c0 3.3-.5 4.9-3.3 8.1A70.476 70.476 0 0 1 0 60l2.8 3a84.286 84.286 0 0 0 6.8-7 12.159 12.159 0 0 0 2.6-3.4zm54.9 3V32h4.2v23.6zM45 57.7v3.7h22V73h4.3V57.7zm5.9-11.8a14.924 14.924 0 0 1-2.9 3.5c-1.8 1.7-4.4 3.9-6.7 5.8l-2.6-3.1a88.435 88.435 0 0 0 7.1-6.1 8.417 8.417 0 0 0 2.8-7v-5.3h4.3v5.1c0 2.7.2 4.2 2.3 6.1a88.867 88.867 0 0 0 7.1 5.9l-2.5 3c-2.3-1.7-4.3-3.5-6.4-5.2a7.975 7.975 0 0 1-2.5-2.7zm33.2-2.4h-4.2v24.1h4.2zm-4.4-8.6h4.5v4.7h-4.5zm16.4.9h-4.9v31.7h4v-26a43.159 43.159 0 0 0 2.2 4.7l12.1 21.3h4.9V35.8h-4v26a28.671 28.671 0 0 0-2.2-4.6z" style="fill-rule:evenodd"/>
        <path data-name="패스 7601" d="M211.2 45a6.175 6.175 0 0 0 2.5-.5l.8-3a3.922 3.922 0 0 1-1.8.4c-.6 0-.9-.3-.9-.7a1.486 1.486 0 0 1 .1-.6l1.4-5.2h2.9l.8-3h-2.9l.9-3.2h-3.5l-.9 3.2h-1.5l-.8 3h1.5l-1.5 5.6a8.874 8.874 0 0 0-.2 1.5c-.1 1.5.9 2.5 3.1 2.5z" style="fill:#0068ff"/>
        <path data-name="패스 7602" d="M216.3 44.8h3.5l1.9-6.9c.4-1.5 1.3-2.5 2.7-2.5 1.1 0 1.7.5 1.7 1.5a4.253 4.253 0 0 1-.2 1.1l-1.8 6.8h3.5l1.8-6.6a10.928 10.928 0 0 0 .4-2.4 3.389 3.389 0 0 0-3.7-3.6 5.1 5.1 0 0 0-3.4 1.5l1.5-5.8h-3.5z" style="fill:#0068ff"/>
        <path data-name="패스 7603" d="M182.6 61.2A14.6 14.6 0 1 0 168 46.6a14.553 14.553 0 0 0 14.6 14.6z" style="stroke-width:10px;stroke-linejoin:round;stroke-miterlimit:10;stroke:#0068ff;fill:none"/>
        <g data-name="그룹 16289">
            <path data-name="패스 7604" d="m187.4 51.5 9.8 9.8" style="stroke-linecap:round;stroke:#00ff4e;stroke-width:10px;fill:none"/>
        </g>
        <path data-name="패스 7605" d="M184.8 56a9.394 9.394 0 0 0 7.1-7l7.6 7.6a19.845 19.845 0 0 1-7.1 7z" style="fill:#004ebf;fill-rule:evenodd"/>
        <g data-name="그룹 16292">
            <path data-name="패스 7606" d="m135 67.5 13.9-13.6c3.3-3.3 7.3-6.8 7.3-11.5h0" style="stroke:#2cccff;stroke-linecap:round;stroke-width:10px;fill:none"/>
            <path data-name="패스 7607" d="M156.2 42.6a10.6 10.6 0 1 0-21.2 0V45" style="stroke-width:10px;stroke:#0068ff;fill:none"/>
            <g data-name="그룹 16290">
                <path data-name="패스 7608" d="M156.2 42.6a10.156 10.156 0 0 0-1.2-4.9 10.6 10.6 0 0 0-20 4.9V45" style="stroke-width:10px;stroke:#0068ff;fill:none"/>
            </g>
            <g data-name="그룹 16291">
                <path data-name="패스 7609" d="M135 67.5h22.5" style="stroke-linecap:round;stroke:#00ff4e;stroke-width:10px;fill:none"/>
            </g>
            <path data-name="패스 7610" d="m147.2 62.5-8.7 8.6a5.041 5.041 0 0 1-7.1-.1 4.844 4.844 0 0 1-1.1-5.2 5 5 0 0 1 4.7-3.3h12.2z" style="fill:#00904b;fill-rule:evenodd"/>
        </g>
        <path data-name="패스 7611" d="M180.4 22.9c-.2.1-.4-.1-.5-.3a8.972 8.972 0 0 0-8-6.7.43.43 0 0 1-.4-.4l-.1-4.5a.43.43 0 0 1 .4-.4A14.116 14.116 0 0 1 185 21.2c.1.2-.1.4-.3.4z" style="fill:#03e26b;fill-rule:evenodd"/>
        <path data-name="패스 7612" d="M218.9 13.7a.716.716 0 0 1 1.2-.3l5.3 5.3a.716.716 0 0 1-.3 1.2l-7.2 1.9a.8.8 0 0 1-.9-.9z" style="fill:#ff541a"/>
        <path data-name="패스 7613" d="M162.4 8a.472.472 0 0 1 .5.5 4.975 4.975 0 0 0 1.4 3 4.9 4.9 0 0 0 2.9 1.3.56.56 0 0 1 .5.6.675.675 0 0 1-.4.6 5.2 5.2 0 0 0-2.9 1.3 4.682 4.682 0 0 0-1.4 2.9.472.472 0 0 1-.5.5.622.622 0 0 1-.6-.4c0-.1-.1-.3-.1-.4a5.7 5.7 0 0 0-1.3-2.7 6.722 6.722 0 0 0-2.7-1.2c-.1 0-.2-.1-.4-.1a.675.675 0 0 1-.4-.6.472.472 0 0 1 .5-.5 5.917 5.917 0 0 0 3-1.2 4.706 4.706 0 0 0 1.4-3c0-.4.2-.6.5-.6z" style="fill:#c5ff49;fill-rule:evenodd"/>
        <path data-name="패스 7614" d="M190.7 22.8v.2l4.2 3.7 1.9-6.5z" style="fill:#06ff52"/>
        <path data-name="패스 7615" d="m190.5 22.8.1.1v-.2z" style="fill:#fff"/>
        <path data-name="패스 7616" d="m202.8 17.5-6 2.6-1.9 6.5 4.2 3.7z" style="fill:#004ebf"/>
        <path data-name="패스 7617" d="m203.3 34 5.5-19.2-6 2.6-3.7 12.8z" style="fill:#0068ff"/>
        <circle data-name="타원 36" cx="2.5" cy="2.5" r="2.5" transform="translate(206.1 12.5)" style="fill:#2cccff"/>
    </g>
</svg>
